<?xml version="1.0" encoding="iso-8859-1"?>
<!-- Generator: Adobe Illustrator 16.0.0, SVG Export Plug-In . SVG Version: 6.00 Build 0)  -->
<!DOCTYPE svg PUBLIC "-//W3C//DTD SVG 1.1//EN" "http://www.w3.org/Graphics/SVG/1.1/DTD/svg11.dtd" [
	<!ENTITY ns_flows "http://ns.adobe.com/Flows/1.0/">
	<!ENTITY ns_extend "http://ns.adobe.com/Extensibility/1.0/">
	<!ENTITY ns_ai "http://ns.adobe.com/AdobeIllustrator/10.0/">
	<!ENTITY ns_graphs "http://ns.adobe.com/Graphs/1.0/">
]>
<svg version="1.1" id="Layer_1" xmlns:x="&ns_extend;" xmlns:i="&ns_ai;" xmlns:graph="&ns_graphs;"
	 xmlns="http://www.w3.org/2000/svg" xmlns:xlink="http://www.w3.org/1999/xlink" xmlns:a="http://ns.adobe.com/AdobeSVGViewerExtensions/3.0/"
	 x="0px" y="0px" width="500px" height="500px" viewBox="0 0 500 500" enable-background="new 0 0 500 500" xml:space="preserve">
<path fill-rule="evenodd" clip-rule="evenodd" d="M0.766,40.597c37.875,0,73.169-0.216,108.452,0.331
	c3.605,0.054,8.293,4.007,10.515,7.289c31.111,45.954,61.888,92.101,92.728,138.211c22.296,33.334,44.566,66.688,67.688,101.287
	c35.456-53.243,70.479-105.831,107.339-161.18c-11.557,0-20.666,0-29.774,0c-21.949,0-43.904-0.284-65.848,0.135
	c-9.07,0.176-15.322-1.213-20.423-9.601c-15.258-25.076-31.809-49.474-48.913-75.763c6.196-0.306,10.413-0.693,14.635-0.696
	c64.851-0.038,129.703,0.141,194.554-0.203c10.013-0.054,16.013,2.464,21.306,10.931c14.434,23.072,30.584,45.221,45.173,68.217
	c2.062,3.251,0.793,10.075-1.614,13.736c-58.823,89.593-117.956,179.013-177.187,268.376c-12.214,18.428-25.037,36.513-39.76,57.927
	C186.418,319.536,94.431,181.327,0.766,40.597z" style/>
</svg>
